<svg xmlns="http://www.w3.org/2000/svg" width="16" height="16" viewBox="0 0 16 16" fill="none">
<path d="M13.2373 5.952L11.808 14.4853C11.7856 14.6078 11.7211 14.7185 11.6256 14.7984C11.5302 14.8782 11.4098 14.9222 11.2853 14.9227H4.71466C4.5902 14.9222 4.46982 14.8782 4.37437 14.7984C4.27891 14.7185 4.2144 14.6078 4.192 14.4853L2.76266 5.952C2.75035 5.87605 2.75462 5.79834 2.77517 5.7242C2.79572 5.65006 2.83207 5.58124 2.88172 5.52246C2.93137 5.46369 2.99315 5.41636 3.06282 5.38371C3.13249 5.35107 3.2084 5.33388 3.28533 5.33333H12.704C12.7818 5.33233 12.8589 5.34837 12.9299 5.38034C13.0009 5.41231 13.064 5.45943 13.1148 5.51839C13.1657 5.57734 13.203 5.64671 13.2241 5.72162C13.2453 5.79653 13.2498 5.87516 13.2373 5.952ZM13.8667 3.73333C13.8667 3.87478 13.8105 4.01044 13.7105 4.11046C13.6104 4.21048 13.4748 4.26667 13.3333 4.26667H2.66666C2.52522 4.26667 2.38956 4.21048 2.28954 4.11046C2.18952 4.01044 2.13333 3.87478 2.13333 3.73333C2.13333 3.59188 2.18952 3.45623 2.28954 3.35621C2.38956 3.25619 2.52522 3.2 2.66666 3.2H5.33333V1.6C5.33333 1.45855 5.38952 1.32289 5.48954 1.22288C5.58956 1.12286 5.72522 1.06667 5.86666 1.06667H10.1333C10.2748 1.06667 10.4104 1.12286 10.5105 1.22288C10.6105 1.32289 10.6667 1.45855 10.6667 1.6V3.2H13.3333C13.4748 3.2 13.6104 3.25619 13.7105 3.35621C13.8105 3.45623 13.8667 3.59188 13.8667 3.73333ZM9.6 3.2V2.13333H6.4V3.2H9.6Z" fill="#B80020"/>
</svg>